<?xml version="1.0" encoding="UTF-8"?>
<svg xmlns="http://www.w3.org/2000/svg" xmlns:xlink="http://www.w3.org/1999/xlink" width="50pt" height="50pt" viewBox="0 0 50 50" version="1.1">
<g id="surface1">
<path style=" stroke:none;fill-rule:nonzero;fill:rgb(12.54902%,65.882353%,24.313725%);fill-opacity:1;" d="M 42.675781 7.320312 C 37.957031 2.601562 31.679688 0 25 0 C 18.320312 0 12.042969 2.601562 7.320312 7.320312 C 2.601562 12.042969 0 18.320312 0 25 C 0 30.027344 1.480469 34.855469 4.285156 39 L 0.0664062 48.839844 C -0.0625 49.144531 0.0078125 49.519531 0.242188 49.753906 C 0.488281 50 0.878906 50.066406 1.191406 49.917969 L 10.601562 45.4375 C 14.828125 48.425781 19.796875 50 25 50 C 31.679688 50 37.957031 47.398438 42.675781 42.679688 C 47.398438 37.957031 50 31.679688 50 25 C 50 18.320312 47.398438 12.042969 42.675781 7.320312 Z M 42.675781 7.320312 "/>
<path style=" stroke:none;fill-rule:nonzero;fill:rgb(89.803922%,89.803922%,89.803922%);fill-opacity:1;" d="M 45.832031 25 C 45.832031 36.507812 36.507812 45.832031 25 45.832031 C 13.492188 45.832031 4.167969 36.507812 4.167969 25 C 4.167969 13.492188 13.492188 4.167969 25 4.167969 C 36.507812 4.167969 45.832031 13.492188 45.832031 25 Z M 45.832031 25 "/>
<path style=" stroke:none;fill-rule:nonzero;fill:rgb(100%,100%,100%);fill-opacity:1;" d="M 43.332031 25 C 43.332031 35.125 35.125 43.332031 25 43.332031 C 14.875 43.332031 6.667969 35.125 6.667969 25 C 6.667969 14.875 14.875 6.667969 25 6.667969 C 35.125 6.667969 43.332031 14.875 43.332031 25 Z M 43.332031 25 "/>
<path style=" stroke:none;fill-rule:nonzero;fill:rgb(12.54902%,65.882353%,24.313725%);fill-opacity:1;" d="M 38.320312 33.460938 L 37.570312 29.402344 C 37.507812 29.066406 37.25 28.804688 36.914062 28.738281 L 31.023438 27.558594 C 30.746094 27.503906 30.464844 27.589844 30.269531 27.785156 L 27.875 30.179688 C 23.839844 28.371094 21.601562 26.128906 19.632812 21.921875 L 22.019531 19.535156 C 22.214844 19.339844 22.300781 19.058594 22.246094 18.785156 L 21.070312 12.890625 C 21 12.558594 20.738281 12.296875 20.402344 12.234375 L 16.34375 11.484375 C 16.234375 11.464844 16.117188 11.46875 16.007812 11.492188 C 14.9375 11.734375 13.957031 12.277344 13.179688 13.054688 C 11.832031 14.402344 11.316406 16.367188 11.691406 18.742188 C 12.316406 22.726562 14.269531 28.269531 17.871094 31.886719 L 17.921875 31.9375 C 21.535156 35.535156 27.078125 37.488281 31.0625 38.113281 C 31.566406 38.191406 32.050781 38.230469 32.511719 38.230469 C 34.242188 38.230469 35.6875 37.6875 36.75 36.625 C 37.527344 35.847656 38.070312 34.867188 38.3125 33.796875 C 38.335938 33.6875 38.339844 33.570312 38.320312 33.460938 Z M 38.320312 33.460938 "/>
<path style=" stroke:none;fill-rule:nonzero;fill:rgb(9.411765%,58.039216%,20%);fill-opacity:1;" d="M 34.179688 36.761719 C 33.714844 36.761719 33.230469 36.722656 32.730469 36.640625 C 28.746094 36.015625 23.199219 34.0625 19.585938 30.464844 L 19.539062 30.414062 C 15.9375 26.800781 13.984375 21.253906 13.359375 17.269531 C 13.035156 15.207031 13.378906 13.453125 14.363281 12.144531 C 13.933594 12.394531 13.535156 12.699219 13.179688 13.054688 C 11.832031 14.402344 11.316406 16.367188 11.691406 18.742188 C 12.316406 22.726562 14.269531 28.269531 17.871094 31.886719 L 17.921875 31.9375 C 21.535156 35.535156 27.078125 37.488281 31.0625 38.113281 C 31.566406 38.195312 32.050781 38.234375 32.511719 38.234375 C 34.242188 38.234375 35.6875 37.6875 36.75 36.625 C 36.945312 36.433594 37.121094 36.226562 37.285156 36.011719 C 36.402344 36.507812 35.355469 36.761719 34.179688 36.761719 Z M 34.179688 36.761719 "/>
</g>
</svg>
