<svg class="display-none">
<symbol viewBox="0 0 50 50" id="icon-whatsapp"><title>whatsapp</title>
<path style=" stroke:none;fill-rule:nonzero;fill:rgb(12.54902%,65.882353%,24.313725%);fill-opacity:1;" d="M 42.675781 7.320312 C 37.957031 2.601562 31.679688 0 25 0 C 18.320312 0 12.042969 2.601562 7.320312 7.320312 C 2.601562 12.042969 0 18.320312 0 25 C 0 30.027344 1.480469 34.855469 4.285156 39 L 0.0664062 48.839844 C -0.0625 49.144531 0.0078125 49.519531 0.242188 49.753906 C 0.488281 50 0.878906 50.066406 1.191406 49.917969 L 10.601562 45.4375 C 14.828125 48.425781 19.796875 50 25 50 C 31.679688 50 37.957031 47.398438 42.675781 42.679688 C 47.398438 37.957031 50 31.679688 50 25 C 50 18.320312 47.398438 12.042969 42.675781 7.320312 Z M 42.675781 7.320312 "/>
<path style=" stroke:none;fill-rule:nonzero;fill:rgb(89.803922%,89.803922%,89.803922%);fill-opacity:1;" d="M 45.832031 25 C 45.832031 36.507812 36.507812 45.832031 25 45.832031 C 13.492188 45.832031 4.167969 36.507812 4.167969 25 C 4.167969 13.492188 13.492188 4.167969 25 4.167969 C 36.507812 4.167969 45.832031 13.492188 45.832031 25 Z M 45.832031 25 "/>
<path style=" stroke:none;fill-rule:nonzero;fill:rgb(100%,100%,100%);fill-opacity:1;" d="M 43.332031 25 C 43.332031 35.125 35.125 43.332031 25 43.332031 C 14.875 43.332031 6.667969 35.125 6.667969 25 C 6.667969 14.875 14.875 6.667969 25 6.667969 C 35.125 6.667969 43.332031 14.875 43.332031 25 Z M 43.332031 25 "/>
<path style=" stroke:none;fill-rule:nonzero;fill:rgb(12.54902%,65.882353%,24.313725%);fill-opacity:1;" d="M 38.320312 33.460938 L 37.570312 29.402344 C 37.507812 29.066406 37.25 28.804688 36.914062 28.738281 L 31.023438 27.558594 C 30.746094 27.503906 30.464844 27.589844 30.269531 27.785156 L 27.875 30.179688 C 23.839844 28.371094 21.601562 26.128906 19.632812 21.921875 L 22.019531 19.535156 C 22.214844 19.339844 22.300781 19.058594 22.246094 18.785156 L 21.070312 12.890625 C 21 12.558594 20.738281 12.296875 20.402344 12.234375 L 16.34375 11.484375 C 16.234375 11.464844 16.117188 11.46875 16.007812 11.492188 C 14.9375 11.734375 13.957031 12.277344 13.179688 13.054688 C 11.832031 14.402344 11.316406 16.367188 11.691406 18.742188 C 12.316406 22.726562 14.269531 28.269531 17.871094 31.886719 L 17.921875 31.9375 C 21.535156 35.535156 27.078125 37.488281 31.0625 38.113281 C 31.566406 38.191406 32.050781 38.230469 32.511719 38.230469 C 34.242188 38.230469 35.6875 37.6875 36.75 36.625 C 37.527344 35.847656 38.070312 34.867188 38.3125 33.796875 C 38.335938 33.6875 38.339844 33.570312 38.320312 33.460938 Z M 38.320312 33.460938 "/>
<path style=" stroke:none;fill-rule:nonzero;fill:rgb(9.411765%,58.039216%,20%);fill-opacity:1;" d="M 34.179688 36.761719 C 33.714844 36.761719 33.230469 36.722656 32.730469 36.640625 C 28.746094 36.015625 23.199219 34.0625 19.585938 30.464844 L 19.539062 30.414062 C 15.9375 26.800781 13.984375 21.253906 13.359375 17.269531 C 13.035156 15.207031 13.378906 13.453125 14.363281 12.144531 C 13.933594 12.394531 13.535156 12.699219 13.179688 13.054688 C 11.832031 14.402344 11.316406 16.367188 11.691406 18.742188 C 12.316406 22.726562 14.269531 28.269531 17.871094 31.886719 L 17.921875 31.9375 C 21.535156 35.535156 27.078125 37.488281 31.0625 38.113281 C 31.566406 38.195312 32.050781 38.234375 32.511719 38.234375 C 34.242188 38.234375 35.6875 37.6875 36.75 36.625 C 36.945312 36.433594 37.121094 36.226562 37.285156 36.011719 C 36.402344 36.507812 35.355469 36.761719 34.179688 36.761719 Z M 34.179688 36.761719 "/>
</symbol><symbol viewBox="0 0 14 14" id="icon-envelope"><title>envelope</title> <path d="M14 5.547v6.203q0 0.516-0.367 0.883t-0.883 0.367h-11.5q-0.516 0-0.883-0.367t-0.367-0.883v-6.203q0.344 0.383 0.789 0.68 2.828 1.922 3.883 2.695 0.445 0.328 0.723 0.512t0.738 0.375 0.859 0.191h0.016q0.398 0 0.859-0.191t0.738-0.375 0.723-0.512q1.328-0.961 3.891-2.695 0.445-0.305 0.781-0.68zM14 3.25q0 0.617-0.383 1.18t-0.953 0.961q-2.937 2.039-3.656 2.539-0.078 0.055-0.332 0.238t-0.422 0.297-0.406 0.254-0.449 0.211-0.391 0.070h-0.016q-0.18 0-0.391-0.070t-0.449-0.211-0.406-0.254-0.422-0.297-0.332-0.238q-0.711-0.5-2.047-1.426t-1.602-1.113q-0.484-0.328-0.914-0.902t-0.43-1.066q0-0.609 0.324-1.016t0.926-0.406h11.5q0.508 0 0.879 0.367t0.371 0.883z"/> </symbol><symbol viewBox="0 0 8 14" id="icon-facebook"><title>facebook</title> <path d="M7.492 0.094v2.062h-1.227q-0.672 0-0.906 0.281t-0.234 0.844v1.477h2.289l-0.305 2.313h-1.984v5.93h-2.391v-5.93h-1.992v-2.313h1.992v-1.703q0-1.453 0.813-2.254t2.164-0.801q1.148 0 1.781 0.094z"/> </symbol><symbol viewBox="0 0 11 14" id="icon-feed"><title>feed</title> <path d="M3 10.5q0 0.625-0.438 1.062t-1.062 0.438-1.062-0.438-0.438-1.062 0.438-1.062 1.062-0.438 1.062 0.438 0.438 1.062zM7 11.461q0.016 0.219-0.133 0.375-0.141 0.164-0.367 0.164h-1.055q-0.195 0-0.336-0.129t-0.156-0.324q-0.172-1.789-1.441-3.059t-3.059-1.441q-0.195-0.016-0.324-0.156t-0.129-0.336v-1.055q0-0.227 0.164-0.367 0.133-0.133 0.336-0.133h0.039q1.25 0.102 2.391 0.629t2.023 1.418q0.891 0.883 1.418 2.023t0.629 2.391zM11 11.477q0.016 0.211-0.141 0.367-0.141 0.156-0.359 0.156h-1.117q-0.203 0-0.348-0.137t-0.152-0.332q-0.094-1.68-0.789-3.191t-1.809-2.625-2.625-1.809-3.191-0.797q-0.195-0.008-0.332-0.152t-0.137-0.34v-1.117q0-0.219 0.156-0.359 0.141-0.141 0.344-0.141h0.023q2.047 0.102 3.918 0.937t3.324 2.297q1.461 1.453 2.297 3.324t0.937 3.918z"/> </symbol><symbol viewBox="0 0 12 14" id="icon-instagram"><title>instagram</title> <path d="M10.641 11.141v-5.063h-1.055q0.156 0.492 0.156 1.023 0 0.984-0.5 1.816t-1.359 1.316-1.875 0.484q-1.539 0-2.633-1.059t-1.094-2.559q0-0.531 0.156-1.023h-1.102v5.063q0 0.203 0.137 0.34t0.34 0.137h8.352q0.195 0 0.336-0.137t0.141-0.34zM8.422 6.977q0-0.969-0.707-1.652t-1.707-0.684q-0.992 0-1.699 0.684t-0.707 1.652 0.707 1.652 1.699 0.684q1 0 1.707-0.684t0.707-1.652zM10.641 4.164v-1.289q0-0.219-0.156-0.379t-0.383-0.16h-1.359q-0.227 0-0.383 0.16t-0.156 0.379v1.289q0 0.227 0.156 0.383t0.383 0.156h1.359q0.227 0 0.383-0.156t0.156-0.383zM12 2.539v8.922q0 0.633-0.453 1.086t-1.086 0.453h-8.922q-0.633 0-1.086-0.453t-0.453-1.086v-8.922q0-0.633 0.453-1.086t1.086-0.453h8.922q0.633 0 1.086 0.453t0.453 1.086z"/> </symbol><symbol viewBox="0 0 11 14" id="icon-phone"><title>phone</title> <path d="M11 9.687q0 0.211-0.078 0.551t-0.164 0.535q-0.164 0.391-0.953 0.828-0.734 0.398-1.453 0.398-0.211 0-0.41-0.027t-0.449-0.098-0.371-0.113-0.434-0.16-0.383-0.141q-0.766-0.273-1.367-0.648-1-0.617-2.066-1.684t-1.684-2.066q-0.375-0.602-0.648-1.367-0.023-0.070-0.141-0.383t-0.16-0.434-0.113-0.371-0.098-0.449-0.027-0.41q0-0.719 0.398-1.453 0.438-0.789 0.828-0.953 0.195-0.086 0.535-0.164t0.551-0.078q0.109 0 0.164 0.023 0.141 0.047 0.414 0.594 0.086 0.148 0.234 0.422t0.273 0.496 0.242 0.418q0.023 0.031 0.137 0.195t0.168 0.277 0.055 0.223q0 0.156-0.223 0.391t-0.484 0.43-0.484 0.414-0.223 0.359q0 0.070 0.039 0.176t0.066 0.16 0.109 0.187 0.090 0.148q0.594 1.070 1.359 1.836t1.836 1.359q0.016 0.008 0.148 0.090t0.187 0.109 0.16 0.066 0.176 0.039q0.141 0 0.359-0.223t0.414-0.484 0.43-0.484 0.391-0.223q0.109 0 0.223 0.055t0.277 0.168 0.195 0.137q0.195 0.117 0.418 0.242t0.496 0.273 0.422 0.234q0.547 0.273 0.594 0.414 0.023 0.055 0.023 0.164z"/> </symbol><symbol viewBox="0 0 13 14" id="icon-twitter"><title>twitter</title> <path d="M12.656 3.188q-0.523 0.766-1.266 1.305 0.008 0.109 0.008 0.328 0 1.016-0.297 2.027t-0.902 1.941-1.441 1.645-2.016 1.141-2.523 0.426q-2.117 0-3.875-1.133 0.273 0.031 0.609 0.031 1.758 0 3.133-1.078-0.82-0.016-1.469-0.504t-0.891-1.246q0.258 0.039 0.477 0.039 0.336 0 0.664-0.086-0.875-0.18-1.449-0.871t-0.574-1.605v-0.031q0.531 0.297 1.141 0.32-0.516-0.344-0.82-0.898t-0.305-1.203q0-0.688 0.344-1.273 0.945 1.164 2.301 1.863t2.902 0.777q-0.062-0.297-0.062-0.578 0-1.047 0.738-1.785t1.785-0.738q1.094 0 1.844 0.797 0.852-0.164 1.602-0.609-0.289 0.898-1.109 1.391 0.727-0.078 1.453-0.391z"/> </symbol><symbol viewBox="0 0 24 24" id="icon-linkedin"><title>linkedin</title> <path d="M4.98 3.5c0 1.381-1.11 2.5-2.48 2.5s-2.48-1.119-2.48-2.5c0-1.38 1.11-2.5 2.48-2.5s2.48 1.12 2.48 2.5zm.02 4.5h-5v16h5v-16zm7.982 0h-4.968v16h4.969v-8.399c0-4.67 6.029-5.052 6.029 0v8.399h4.988v-10.131c0-7.88-8.922-7.593-11.018-3.714v-2.155z"/></symbol><symbol viewBox="0 0 24 24" id="icon-print"><title>print</title> <path d="M18 17l3 6h-18l3-6h2.203l-1.967 4h11.527l-1.956-4h2.193zm6-12v14h-2.764l-2-4h-14.472l-2 4h-2.764v-14h4v-4h16v4h4zm-6-2h-12v2h12v-2zm4 4.5c0-.276-.224-.5-.5-.5s-.5.224-.5.5.224.5.5.5.5-.224.5-.5z"/></symbol><symbol viewBox="0 0 12 14" id="icon-youtube"><title>youtube</title> <path d="M7.586 9.719v1.648q0 0.523-0.305 0.523-0.18 0-0.352-0.172v-2.352q0.172-0.172 0.352-0.172 0.305 0 0.305 0.523zM10.227 9.727v0.359h-0.703v-0.359q0-0.531 0.352-0.531t0.352 0.531zM2.68 8.023h0.836v-0.734h-2.438v0.734h0.82v4.445h0.781v-4.445zM4.93 12.469h0.695v-3.859h-0.695v2.953q-0.234 0.328-0.445 0.328-0.141 0-0.164-0.164-0.008-0.023-0.008-0.273v-2.844h-0.695v3.055q0 0.383 0.062 0.57 0.094 0.289 0.453 0.289 0.375 0 0.797-0.477v0.422zM8.281 11.313v-1.539q0-0.57-0.070-0.773-0.133-0.438-0.555-0.438-0.391 0-0.727 0.422v-1.695h-0.695v5.18h0.695v-0.375q0.352 0.43 0.727 0.43 0.422 0 0.555-0.43 0.070-0.211 0.070-0.781zM10.922 11.234v-0.102h-0.711q0 0.398-0.016 0.477-0.055 0.281-0.312 0.281-0.359 0-0.359-0.539v-0.68h1.398v-0.805q0-0.617-0.211-0.906-0.305-0.398-0.828-0.398-0.531 0-0.836 0.398-0.219 0.289-0.219 0.906v1.352q0 0.617 0.227 0.906 0.305 0.398 0.844 0.398 0.563 0 0.844-0.414 0.141-0.211 0.164-0.422 0.016-0.070 0.016-0.453zM6.172 4.102v-1.641q0-0.539-0.336-0.539t-0.336 0.539v1.641q0 0.547 0.336 0.547t0.336-0.547zM11.789 9.969q0 1.828-0.203 2.734-0.109 0.461-0.453 0.773t-0.797 0.359q-1.438 0.164-4.336 0.164t-4.336-0.164q-0.453-0.047-0.801-0.359t-0.449-0.773q-0.203-0.875-0.203-2.734 0-1.828 0.203-2.734 0.109-0.461 0.453-0.773t0.805-0.367q1.43-0.156 4.328-0.156t4.336 0.156q0.453 0.055 0.801 0.367t0.449 0.773q0.203 0.875 0.203 2.734zM3.992 0h0.797l-0.945 3.117v2.117h-0.781v-2.117q-0.109-0.578-0.477-1.656-0.289-0.805-0.508-1.461h0.828l0.555 2.055zM6.883 2.602v1.367q0 0.633-0.219 0.922-0.289 0.398-0.828 0.398-0.523 0-0.82-0.398-0.219-0.297-0.219-0.922v-1.367q0-0.625 0.219-0.914 0.297-0.398 0.82-0.398 0.539 0 0.828 0.398 0.219 0.289 0.219 0.914zM9.5 1.336v3.898h-0.711v-0.43q-0.414 0.484-0.805 0.484-0.359 0-0.461-0.289-0.062-0.187-0.062-0.586v-3.078h0.711v2.867q0 0.258 0.008 0.273 0.023 0.172 0.164 0.172 0.211 0 0.445-0.336v-2.977h0.711z"/> </symbol></svg>
